<?xml version="1.0" encoding="utf-8"?>
<!-- Generator: Adobe Illustrator 26.0.3, SVG Export Plug-In . SVG Version: 6.00 Build 0)  -->
<svg version="1.1" id="Layer_1" xmlns="http://www.w3.org/2000/svg" xmlns:xlink="http://www.w3.org/1999/xlink" x="0px" y="0px"
	 viewBox="0 0 429 430" style="enable-background:new 0 0 429 430;" xml:space="preserve">
<style type="text/css">
	.st0{fill:#21252B;}
	.st1{fill-rule:evenodd;clip-rule:evenodd;fill:#A1A4AA;}
	.st2{fill-rule:evenodd;clip-rule:evenodd;fill:url(#Shape_bot_00000073697034597778435530000002694324117070479539_);}
	.st3{fill-rule:evenodd;clip-rule:evenodd;fill:#1374CF;}
	.st4{fill-rule:evenodd;clip-rule:evenodd;fill:url(#Shape_bot-2_00000044860174112605921650000018033060652137425591_);}
</style>
<g id="Axon_Server_-_Dark_icon">
	<g id="Clean_copy_2">
		<circle id="DOts_copy" class="st0" cx="32.8" cy="214.3" r="32.1"/>
		<path id="DOts_grey" class="st1" d="M214.9,364.8c17.7,0,32.1,14.4,32.1,32.1S232.7,429,214.9,429c-17.7,0-32.1-14.4-32.1-32.1
			c0,0,0,0,0,0C182.8,379.1,197.2,364.8,214.9,364.8z M247,32.3c0,17.7-14.4,32.1-32.1,32.1c-17.7,0-32.1-14.4-32.1-32.1
			c0-17.7,14.4-32.1,32.1-32.1l0,0C232.7,0.2,247,14.5,247,32.3L247,32.3L247,32.3z"/>
		<g id="Right_copy">
			
				<linearGradient id="Shape_bot_00000047774881484190378160000016379328161407725710_" gradientUnits="userSpaceOnUse" x1="9955.4707" y1="-5349.2578" x2="9831.5605" y2="-5225.3477" gradientTransform="matrix(1 0 0 -1 -9570 -5147)">
				<stop  offset="0" style="stop-color:#001223"/>
				<stop  offset="0.2" style="stop-color:#1374CF"/>
				<stop  offset="1" style="stop-color:#1374CF"/>
			</linearGradient>
			
				<path id="Shape_bot" style="fill-rule:evenodd;clip-rule:evenodd;fill:url(#Shape_bot_00000047774881484190378160000016379328161407725710_);" d="
				M399.3,170.3l-46.6,44.9l-65.6-65.6c-7.2-6.4-13.2-15.8-13.2-26.2c0-17.7,14.3-32.1,32-32.1c7.8,0,15.3,2.8,21.2,8L399.3,170.3z"
				/>
			<path id="Shape_top" class="st3" d="M429.3,214.6c0,8.5-3.4,16.6-9.3,22.6l-92.3,92.2c-13,12-33.3,11.1-45.3-1.9
				c-5.4-5.9-8.5-13.7-8.4-21.7c0-10.8,5.2-19.5,13.2-26.7l110.4-110.4l22.5,23.4v0C426,198,429.4,206.1,429.3,214.6z"/>
		</g>
		<g id="Right_copy_2">
			
				<linearGradient id="Shape_bot-2_00000005252402106263030370000013079430179105893298_" gradientUnits="userSpaceOnUse" x1="9772.5654" y1="-5349.2627" x2="9648.6553" y2="-5225.3525" gradientTransform="matrix(1 0 0 -1 -9570 -5147)">
				<stop  offset="0" style="stop-color:#4B4B4C"/>
				<stop  offset="0.2" style="stop-color:#A1A4AA"/>
				<stop  offset="1" style="stop-color:#A1A4AA"/>
			</linearGradient>
			
				<path id="Shape_bot-2" style="fill-rule:evenodd;clip-rule:evenodd;fill:url(#Shape_bot-2_00000005252402106263030370000013079430179105893298_);" d="
				M216.4,170.3l-46.6,44.9l-65.6-65.6c-7.2-6.4-13.2-15.8-13.2-26.2c0-17.7,14.3-32.1,32-32.1c7.8,0,15.3,2.8,21.2,8L216.4,170.3z"
				/>
			<path id="Shape_top-2" class="st1" d="M246.4,214.6c0,8.5-3.4,16.6-9.3,22.6l-92.3,92.2c-13,12-33.3,11.1-45.3-1.9
				c-5.4-5.9-8.5-13.7-8.4-21.7c0-10.8,5.2-19.5,13.2-26.7l110.4-110.4l22.5,23.4v0C243.1,198,246.4,206.1,246.4,214.6z"/>
		</g>
	</g>
</g>
</svg>
